<?xml version='1.0' encoding='utf-8'?>
<svg xmlns="http://www.w3.org/2000/svg" enable-background="new 0 0 512 512" version="1.1" viewBox="0 0 512 512"> <path d="m275.5 511.96h-38.996c-13.06 0-23.685-10.625-23.685-23.685v-20.32c-27.287-5.521-52.863-16.123-76.14-31.564l-14.386 14.385c-4.473 4.474-10.421 6.938-16.748 6.938s-12.275-2.464-16.748-6.938l-27.575-27.573c-4.473-4.473-6.937-10.421-6.937-16.747s2.464-12.274 6.937-16.747l14.386-14.386c-15.44-23.276-26.043-48.853-31.563-76.14h-20.32c-13.06 0-23.685-10.625-23.685-23.686v-38.996c0-13.06 10.625-23.685 23.685-23.685h20.32c5.521-27.289 16.123-52.865 31.563-76.14l-14.386-14.387c-4.473-4.474-6.937-10.421-6.937-16.748s2.464-12.274 6.937-16.748l27.575-27.575c4.474-4.473 10.421-6.937 16.748-6.937s12.274 2.464 16.748 6.937l14.386 14.386c23.275-15.44 48.852-26.043 76.14-31.563v-20.32c0-13.06 10.625-23.685 23.685-23.685h38.996c13.06 0 23.685 10.625 23.685 23.685v20.32c27.288 5.521 52.865 16.123 76.141 31.563l14.386-14.386c4.474-4.473 10.421-6.937 16.747-6.937s12.275 2.464 16.748 6.937l27.573 27.575c4.474 4.473 6.938 10.421 6.938 16.748s-2.464 12.275-6.938 16.748l-14.385 14.386c15.44 23.274 26.042 48.851 31.564 76.14h20.32c13.06 0 23.685 10.625 23.685 23.685v38.996c0 13.061-10.625 23.686-23.685 23.686h-20.32c-5.521 27.286-16.123 52.863-31.564 76.14l14.385 14.386c4.474 4.474 6.938 10.421 6.938 16.747 0 6.327-2.464 12.275-6.938 16.749l-27.574 27.573c-4.473 4.474-10.42 6.938-16.747 6.938s-12.274-2.464-16.747-6.938l-14.386-14.385c-23.277 15.441-48.854 26.043-76.141 31.564v20.32c0 13.059-10.625 23.684-23.685 23.684zm-139.44-87.066c0.991 0 1.987 0.292 2.852 0.89 24.173 16.702 51.03 27.835 79.825 33.089 2.385 0.435 4.118 2.513 4.118 4.938v24.465c0 7.525 6.122 13.647 13.647 13.647h38.996c7.525 0 13.647-6.122 13.647-13.647v-24.465c0-2.424 1.733-4.502 4.118-4.938 28.795-5.254 55.652-16.387 79.825-33.089 1.996-1.38 4.69-1.133 6.402 0.58l17.316 17.316c2.578 2.577 6.006 3.997 9.651 3.997 3.646 0 7.072-1.419 9.65-3.997l27.575-27.574c2.578-2.578 3.997-6.005 3.997-9.651 0-3.645-1.42-7.072-3.997-9.651l-17.316-17.316c-1.714-1.713-1.959-4.407-0.58-6.402 16.702-24.173 27.835-51.03 33.089-79.824 0.435-2.385 2.513-4.118 4.938-4.118h24.465c7.525 0 13.647-6.123 13.647-13.648v-38.996c0-7.525-6.122-13.647-13.647-13.647h-24.465c-2.424 0-4.502-1.733-4.938-4.118-5.255-28.798-16.388-55.654-33.089-79.825-1.378-1.994-1.134-4.688 0.58-6.402l17.316-17.317c2.577-2.578 3.997-6.005 3.997-9.65s-1.42-7.072-3.997-9.65l-27.574-27.575c-2.578-2.578-6.005-3.997-9.651-3.997s-7.072 1.42-9.651 3.997l-17.316 17.317c-1.712 1.712-4.405 1.959-6.402 0.58-24.172-16.702-51.03-27.835-79.825-33.09-2.385-0.435-4.118-2.513-4.118-4.938v-24.464c0-7.525-6.122-13.647-13.647-13.647h-38.996c-7.525 0-13.647 6.122-13.647 13.647v24.464c0 2.424-1.733 4.502-4.118 4.938-28.796 5.255-55.653 16.387-79.825 33.089-1.995 1.378-4.689 1.134-6.402-0.58l-17.317-17.317c-5.321-5.322-13.979-5.322-19.3 0l-27.575 27.576c-5.321 5.321-5.321 13.979 0 19.3l17.317 17.317c1.714 1.714 1.958 4.408 0.58 6.402-16.701 24.171-27.835 51.028-33.089 79.825-0.435 2.385-2.513 4.118-4.938 4.118h-24.465c-7.525 0-13.647 6.122-13.647 13.647v38.996c0 7.525 6.122 13.648 13.647 13.648h24.464c2.424 0 4.502 1.733 4.938 4.118 5.255 28.796 16.387 55.652 33.09 79.824 1.378 1.995 1.134 4.689-0.58 6.402l-17.317 17.316c-2.578 2.578-3.997 6.005-3.997 9.651s1.419 7.072 3.997 9.651l27.575 27.574c2.578 2.577 6.005 3.997 9.65 3.997 3.646 0 7.072-1.42 9.65-3.997l17.317-17.316c0.971-0.972 2.256-1.47 3.55-1.47z" fill="#111"/> <path d="m255.99 350.3c-2.772 0-5.019-2.247-5.019-5.019s2.247-5.019 5.019-5.019c46.471 0 84.279-37.801 84.279-84.265 0-22.5-8.767-43.659-24.687-59.578-1.96-1.96-1.96-5.138 0-7.098 1.959-1.96 5.138-1.96 7.097 0 17.816 17.815 27.627 41.495 27.627 66.676 0 51.999-42.31 94.303-94.316 94.303z" fill="#111"/> <path d="m192.87 324.16c-1.285 0-2.569-0.49-3.549-1.47-17.815-17.815-27.626-41.499-27.626-66.689 0-51.999 42.304-94.303 94.303-94.303 2.772 0 5.019 2.247 5.019 5.019s-2.247 5.019-5.019 5.019c-46.464 0-84.265 37.801-84.265 84.265 0 22.509 8.767 43.673 24.687 59.592 1.96 1.96 1.96 5.137 0 7.097-0.981 0.979-2.266 1.47-3.55 1.47z" fill="#111"/> <path d="m231.02 190.87c-1.508 0-3-0.677-3.988-1.967-1.686-2.201-1.268-5.351 0.932-7.036l19.777-15.148-19.777-15.149c-2.2-1.686-2.618-4.836-0.932-7.036 1.687-2.201 4.837-2.617 7.036-0.932l24.979 19.133c1.24 0.949 1.967 2.422 1.966 3.984 0 1.562-0.726 3.035-1.966 3.984l-24.979 19.132c-0.91 0.697-1.983 1.035-3.048 1.035z" fill="#111"/> <path d="m280.98 369.44c-1.065 0-2.137-0.337-3.048-1.034l-24.98-19.132c-1.24-0.95-1.967-2.423-1.967-3.985s0.727-3.035 1.967-3.985l24.98-19.132c2.199-1.684 5.351-1.267 7.036 0.933 1.685 2.201 1.267 5.35-0.933 7.036l-19.776 15.148 19.776 15.148c2.201 1.686 2.618 4.836 0.933 7.036-0.988 1.29-2.48 1.967-3.988 1.967z" fill="#111"/> <path d="m256 401.2c-80.066 0-145.2-65.138-145.2-145.2 0-80.066 65.139-145.2 145.2-145.2s145.2 65.139 145.2 145.2c0 80.067-65.139 145.2-145.2 145.2zm0-280.37c-74.532 0-135.17 60.636-135.17 135.17s60.636 135.17 135.17 135.17 135.17-60.636 135.17-135.17-60.636-135.17-135.17-135.17z" fill="#111"/> <path d="m256 426.62c-94.08 0-170.62-76.54-170.62-170.62s76.54-170.62 170.62-170.62 170.62 76.54 170.62 170.62-76.54 170.62-170.62 170.62zm0-331.2c-88.545 0-160.58 72.037-160.58 160.58s72.036 160.58 160.58 160.58 160.58-72.036 160.58-160.58-72.036-160.58-160.58-160.58z" fill="#111"/> </svg>